<mxfile host="app.diagrams.net" modified="2020-10-18T23:16:25.330Z" agent="5.0 (Macintosh; Intel Mac OS X 10_14_6) AppleWebKit/537.36 (KHTML, like Gecko) Chrome/86.0.4240.80 Safari/537.36" etag="PcrORZhWkv4Dwog_y2on" version="13.8.0" type="github">
  <diagram name="Page-1" id="edf60f1a-56cd-e834-aa8a-f176f3a09ee4">
    <mxGraphModel dx="925" dy="538" grid="1" gridSize="10" guides="1" tooltips="1" connect="1" arrows="1" fold="1" page="1" pageScale="1" pageWidth="1100" pageHeight="850" background="#ffffff" math="0" shadow="0">
      <root>
        <mxCell id="0" />
        <mxCell id="1" parent="0" />
        <mxCell id="gXM7lQSjL1Jpcok_i52--44" value="&lt;span style=&quot;font-size: 14px&quot;&gt;COMMICS&lt;/span&gt;" style="rounded=1;whiteSpace=wrap;html=1;absoluteArcSize=1;arcSize=14;strokeWidth=2;" vertex="1" parent="1">
          <mxGeometry x="954" y="370" width="140" height="30" as="geometry" />
        </mxCell>
        <mxCell id="gXM7lQSjL1Jpcok_i52--64" style="edgeStyle=none;rounded=0;orthogonalLoop=1;jettySize=auto;html=1;exitX=0.5;exitY=1;exitDx=0;exitDy=0;entryX=0.5;entryY=0;entryDx=0;entryDy=0;" edge="1" parent="1" source="gXM7lQSjL1Jpcok_i52--67" target="gXM7lQSjL1Jpcok_i52--65">
          <mxGeometry relative="1" as="geometry">
            <mxPoint x="799" y="450" as="targetPoint" />
          </mxGeometry>
        </mxCell>
        <mxCell id="gXM7lQSjL1Jpcok_i52--74" style="edgeStyle=none;rounded=0;orthogonalLoop=1;jettySize=auto;html=1;exitX=0.5;exitY=1;exitDx=0;exitDy=0;entryX=0.5;entryY=0;entryDx=0;entryDy=0;" edge="1" parent="1" source="gXM7lQSjL1Jpcok_i52--50" target="gXM7lQSjL1Jpcok_i52--75">
          <mxGeometry relative="1" as="geometry">
            <mxPoint x="873" y="520" as="targetPoint" />
          </mxGeometry>
        </mxCell>
        <mxCell id="gXM7lQSjL1Jpcok_i52--50" value="&lt;span style=&quot;font-size: 14px&quot;&gt;GAMES&lt;/span&gt;" style="rounded=1;whiteSpace=wrap;html=1;absoluteArcSize=1;arcSize=14;strokeWidth=2;" vertex="1" parent="1">
          <mxGeometry x="803" y="370" width="140" height="30" as="geometry" />
        </mxCell>
        <mxCell id="gXM7lQSjL1Jpcok_i52--11" style="edgeStyle=elbowEdgeStyle;rounded=0;orthogonalLoop=1;jettySize=auto;html=1;exitX=0.5;exitY=1;exitDx=0;exitDy=0;entryX=0.5;entryY=0;entryDx=0;entryDy=0;elbow=vertical;" edge="1" parent="1" source="gXM7lQSjL1Jpcok_i52--10" target="gXM7lQSjL1Jpcok_i52--12">
          <mxGeometry relative="1" as="geometry">
            <mxPoint x="262" y="230" as="targetPoint" />
            <Array as="points">
              <mxPoint x="327" y="200" />
            </Array>
          </mxGeometry>
        </mxCell>
        <mxCell id="gXM7lQSjL1Jpcok_i52--29" style="edgeStyle=elbowEdgeStyle;rounded=0;orthogonalLoop=1;jettySize=auto;elbow=vertical;html=1;exitX=0.5;exitY=1;exitDx=0;exitDy=0;" edge="1" parent="1" source="gXM7lQSjL1Jpcok_i52--10" target="gXM7lQSjL1Jpcok_i52--28">
          <mxGeometry relative="1" as="geometry">
            <Array as="points">
              <mxPoint x="340" y="200" />
              <mxPoint x="300" y="200" />
              <mxPoint x="290" y="200" />
            </Array>
          </mxGeometry>
        </mxCell>
        <mxCell id="gXM7lQSjL1Jpcok_i52--10" value="&lt;font style=&quot;font-size: 34px&quot;&gt;TUTOR&lt;/font&gt;" style="rounded=1;whiteSpace=wrap;html=1;absoluteArcSize=1;arcSize=14;strokeWidth=2;" vertex="1" parent="1">
          <mxGeometry x="157" y="104" width="210" height="70" as="geometry" />
        </mxCell>
        <mxCell id="gXM7lQSjL1Jpcok_i52--30" style="edgeStyle=elbowEdgeStyle;rounded=0;orthogonalLoop=1;jettySize=auto;elbow=vertical;html=1;exitX=0.5;exitY=1;exitDx=0;exitDy=0;entryX=0.5;entryY=0;entryDx=0;entryDy=0;" edge="1" parent="1" source="gXM7lQSjL1Jpcok_i52--12" target="gXM7lQSjL1Jpcok_i52--14">
          <mxGeometry relative="1" as="geometry" />
        </mxCell>
        <mxCell id="gXM7lQSjL1Jpcok_i52--12" value="&lt;font style=&quot;font-size: 14px&quot;&gt;REGISTER&lt;/font&gt;" style="rounded=1;whiteSpace=wrap;html=1;absoluteArcSize=1;arcSize=14;strokeWidth=2;" vertex="1" parent="1">
          <mxGeometry x="117" y="229" width="140" height="30" as="geometry" />
        </mxCell>
        <mxCell id="gXM7lQSjL1Jpcok_i52--20" style="edgeStyle=none;rounded=0;orthogonalLoop=1;jettySize=auto;html=1;entryX=0.5;entryY=0;entryDx=0;entryDy=0;" edge="1" parent="1" source="gXM7lQSjL1Jpcok_i52--14" target="gXM7lQSjL1Jpcok_i52--15">
          <mxGeometry relative="1" as="geometry" />
        </mxCell>
        <mxCell id="gXM7lQSjL1Jpcok_i52--21" style="edgeStyle=none;rounded=0;orthogonalLoop=1;jettySize=auto;html=1;exitX=0.5;exitY=1;exitDx=0;exitDy=0;entryX=0.5;entryY=0;entryDx=0;entryDy=0;" edge="1" parent="1" source="gXM7lQSjL1Jpcok_i52--14" target="gXM7lQSjL1Jpcok_i52--16">
          <mxGeometry relative="1" as="geometry" />
        </mxCell>
        <mxCell id="gXM7lQSjL1Jpcok_i52--22" style="edgeStyle=none;rounded=0;orthogonalLoop=1;jettySize=auto;html=1;exitX=0.5;exitY=1;exitDx=0;exitDy=0;entryX=0.5;entryY=0;entryDx=0;entryDy=0;" edge="1" parent="1" source="gXM7lQSjL1Jpcok_i52--14" target="gXM7lQSjL1Jpcok_i52--17">
          <mxGeometry relative="1" as="geometry" />
        </mxCell>
        <mxCell id="gXM7lQSjL1Jpcok_i52--14" value="&lt;span style=&quot;font-size: 14px&quot;&gt;HOME&lt;/span&gt;" style="rounded=1;whiteSpace=wrap;html=1;absoluteArcSize=1;arcSize=14;strokeWidth=2;verticalAlign=middle;" vertex="1" parent="1">
          <mxGeometry x="192" y="300" width="140" height="30" as="geometry" />
        </mxCell>
        <mxCell id="gXM7lQSjL1Jpcok_i52--23" style="edgeStyle=none;rounded=0;orthogonalLoop=1;jettySize=auto;html=1;entryX=0.5;entryY=0;entryDx=0;entryDy=0;exitX=0.5;exitY=1;exitDx=0;exitDy=0;" edge="1" parent="1" source="gXM7lQSjL1Jpcok_i52--15" target="gXM7lQSjL1Jpcok_i52--24">
          <mxGeometry relative="1" as="geometry">
            <mxPoint x="262" y="450" as="targetPoint" />
          </mxGeometry>
        </mxCell>
        <mxCell id="gXM7lQSjL1Jpcok_i52--26" style="edgeStyle=none;rounded=0;orthogonalLoop=1;jettySize=auto;html=1;exitX=0.5;exitY=1;exitDx=0;exitDy=0;entryX=0.5;entryY=0;entryDx=0;entryDy=0;" edge="1" parent="1" source="gXM7lQSjL1Jpcok_i52--15" target="gXM7lQSjL1Jpcok_i52--25">
          <mxGeometry relative="1" as="geometry" />
        </mxCell>
        <mxCell id="gXM7lQSjL1Jpcok_i52--63" style="edgeStyle=none;rounded=0;orthogonalLoop=1;jettySize=auto;html=1;exitX=0.5;exitY=1;exitDx=0;exitDy=0;entryX=0.5;entryY=0;entryDx=0;entryDy=0;" edge="1" parent="1" source="gXM7lQSjL1Jpcok_i52--15" target="gXM7lQSjL1Jpcok_i52--56">
          <mxGeometry relative="1" as="geometry" />
        </mxCell>
        <mxCell id="gXM7lQSjL1Jpcok_i52--15" value="&lt;span style=&quot;font-size: 14px&quot;&gt;VIEW CAMPERS&lt;/span&gt;" style="rounded=1;whiteSpace=wrap;html=1;absoluteArcSize=1;arcSize=14;strokeWidth=2;verticalAlign=middle;" vertex="1" parent="1">
          <mxGeometry x="192" y="370" width="140" height="30" as="geometry" />
        </mxCell>
        <mxCell id="gXM7lQSjL1Jpcok_i52--16" value="&lt;span style=&quot;font-size: 14px&quot;&gt;ADD CAMPER&lt;/span&gt;" style="rounded=1;whiteSpace=wrap;html=1;absoluteArcSize=1;arcSize=14;strokeWidth=2;" vertex="1" parent="1">
          <mxGeometry x="41" y="370" width="140" height="30" as="geometry" />
        </mxCell>
        <mxCell id="gXM7lQSjL1Jpcok_i52--17" value="&lt;span style=&quot;font-size: 14px&quot;&gt;DELETE CAMPER&lt;/span&gt;" style="rounded=1;whiteSpace=wrap;html=1;absoluteArcSize=1;arcSize=14;strokeWidth=2;" vertex="1" parent="1">
          <mxGeometry x="341" y="370" width="140" height="30" as="geometry" />
        </mxCell>
        <mxCell id="gXM7lQSjL1Jpcok_i52--24" value="&lt;span style=&quot;font-size: 14px&quot;&gt;VIEW PROGRESS&lt;/span&gt;" style="rounded=1;whiteSpace=wrap;html=1;absoluteArcSize=1;arcSize=14;strokeWidth=2;verticalAlign=middle;" vertex="1" parent="1">
          <mxGeometry x="41" y="451" width="140" height="30" as="geometry" />
        </mxCell>
        <mxCell id="gXM7lQSjL1Jpcok_i52--25" value="&lt;span style=&quot;font-size: 14px&quot;&gt;TUTORSHIP&lt;/span&gt;" style="rounded=1;whiteSpace=wrap;html=1;absoluteArcSize=1;arcSize=14;strokeWidth=2;verticalAlign=middle;" vertex="1" parent="1">
          <mxGeometry x="341" y="451" width="140" height="30" as="geometry" />
        </mxCell>
        <mxCell id="gXM7lQSjL1Jpcok_i52--31" style="edgeStyle=elbowEdgeStyle;rounded=0;orthogonalLoop=1;jettySize=auto;elbow=vertical;html=1;exitX=0.5;exitY=1;exitDx=0;exitDy=0;entryX=0.5;entryY=0;entryDx=0;entryDy=0;" edge="1" parent="1" source="gXM7lQSjL1Jpcok_i52--28" target="gXM7lQSjL1Jpcok_i52--14">
          <mxGeometry relative="1" as="geometry">
            <mxPoint x="260" y="300" as="targetPoint" />
          </mxGeometry>
        </mxCell>
        <mxCell id="gXM7lQSjL1Jpcok_i52--28" value="&lt;font style=&quot;font-size: 14px&quot;&gt;LOGIN&lt;/font&gt;" style="rounded=1;whiteSpace=wrap;html=1;absoluteArcSize=1;arcSize=14;strokeWidth=2;" vertex="1" parent="1">
          <mxGeometry x="270" y="229" width="140" height="30" as="geometry" />
        </mxCell>
        <mxCell id="gXM7lQSjL1Jpcok_i52--33" style="edgeStyle=elbowEdgeStyle;rounded=0;orthogonalLoop=1;jettySize=auto;elbow=vertical;html=1;exitX=0.5;exitY=1;exitDx=0;exitDy=0;" edge="1" source="gXM7lQSjL1Jpcok_i52--34" target="gXM7lQSjL1Jpcok_i52--49" parent="1">
          <mxGeometry relative="1" as="geometry">
            <Array as="points">
              <mxPoint x="1180" y="200" />
              <mxPoint x="1140" y="200" />
              <mxPoint x="1130" y="200" />
            </Array>
          </mxGeometry>
        </mxCell>
        <mxCell id="gXM7lQSjL1Jpcok_i52--34" value="&lt;font style=&quot;font-size: 34px&quot;&gt;CAMPER&lt;/font&gt;" style="rounded=1;whiteSpace=wrap;html=1;absoluteArcSize=1;arcSize=14;strokeWidth=2;" vertex="1" parent="1">
          <mxGeometry x="995" y="104" width="210" height="70" as="geometry" />
        </mxCell>
        <mxCell id="gXM7lQSjL1Jpcok_i52--37" style="edgeStyle=none;rounded=0;orthogonalLoop=1;jettySize=auto;html=1;entryX=0.5;entryY=0;entryDx=0;entryDy=0;exitX=0.5;exitY=1;exitDx=0;exitDy=0;" edge="1" source="gXM7lQSjL1Jpcok_i52--40" target="gXM7lQSjL1Jpcok_i52--43" parent="1">
          <mxGeometry relative="1" as="geometry" />
        </mxCell>
        <mxCell id="gXM7lQSjL1Jpcok_i52--38" style="edgeStyle=none;rounded=0;orthogonalLoop=1;jettySize=auto;html=1;exitX=0.5;exitY=1;exitDx=0;exitDy=0;entryX=0.5;entryY=0;entryDx=0;entryDy=0;" edge="1" source="gXM7lQSjL1Jpcok_i52--40" target="gXM7lQSjL1Jpcok_i52--44" parent="1">
          <mxGeometry relative="1" as="geometry" />
        </mxCell>
        <mxCell id="gXM7lQSjL1Jpcok_i52--39" style="edgeStyle=none;rounded=0;orthogonalLoop=1;jettySize=auto;html=1;exitX=0.5;exitY=1;exitDx=0;exitDy=0;entryX=0.5;entryY=0;entryDx=0;entryDy=0;" edge="1" source="gXM7lQSjL1Jpcok_i52--40" target="gXM7lQSjL1Jpcok_i52--45" parent="1">
          <mxGeometry relative="1" as="geometry" />
        </mxCell>
        <mxCell id="gXM7lQSjL1Jpcok_i52--51" style="rounded=0;orthogonalLoop=1;jettySize=auto;elbow=vertical;html=1;exitX=0.5;exitY=1;exitDx=0;exitDy=0;entryX=0.5;entryY=0;entryDx=0;entryDy=0;" edge="1" parent="1" source="gXM7lQSjL1Jpcok_i52--40" target="gXM7lQSjL1Jpcok_i52--50">
          <mxGeometry relative="1" as="geometry" />
        </mxCell>
        <mxCell id="gXM7lQSjL1Jpcok_i52--54" style="edgeStyle=none;rounded=0;orthogonalLoop=1;jettySize=auto;html=1;exitX=0.5;exitY=1;exitDx=0;exitDy=0;entryX=0.5;entryY=0;entryDx=0;entryDy=0;" edge="1" parent="1" source="gXM7lQSjL1Jpcok_i52--40" target="gXM7lQSjL1Jpcok_i52--53">
          <mxGeometry relative="1" as="geometry" />
        </mxCell>
        <mxCell id="gXM7lQSjL1Jpcok_i52--68" style="edgeStyle=none;rounded=0;orthogonalLoop=1;jettySize=auto;html=1;exitX=0.5;exitY=1;exitDx=0;exitDy=0;entryX=0.5;entryY=0;entryDx=0;entryDy=0;" edge="1" parent="1" source="gXM7lQSjL1Jpcok_i52--40" target="gXM7lQSjL1Jpcok_i52--67">
          <mxGeometry relative="1" as="geometry" />
        </mxCell>
        <mxCell id="gXM7lQSjL1Jpcok_i52--40" value="&lt;span style=&quot;font-size: 14px&quot;&gt;HOME&lt;/span&gt;" style="rounded=1;whiteSpace=wrap;html=1;absoluteArcSize=1;arcSize=14;strokeWidth=2;verticalAlign=middle;" vertex="1" parent="1">
          <mxGeometry x="1031" y="300" width="140" height="30" as="geometry" />
        </mxCell>
        <mxCell id="gXM7lQSjL1Jpcok_i52--43" value="&lt;span style=&quot;font-size: 14px&quot;&gt;MEMES&lt;/span&gt;" style="rounded=1;whiteSpace=wrap;html=1;absoluteArcSize=1;arcSize=14;strokeWidth=2;verticalAlign=middle;" vertex="1" parent="1">
          <mxGeometry x="1104" y="370" width="140" height="30" as="geometry" />
        </mxCell>
        <mxCell id="gXM7lQSjL1Jpcok_i52--45" value="&lt;span style=&quot;font-size: 14px&quot;&gt;TEAMS&lt;/span&gt;" style="rounded=1;whiteSpace=wrap;html=1;absoluteArcSize=1;arcSize=14;strokeWidth=2;" vertex="1" parent="1">
          <mxGeometry x="1255" y="370" width="140" height="30" as="geometry" />
        </mxCell>
        <mxCell id="gXM7lQSjL1Jpcok_i52--48" style="edgeStyle=elbowEdgeStyle;rounded=0;orthogonalLoop=1;jettySize=auto;elbow=vertical;html=1;exitX=0.5;exitY=1;exitDx=0;exitDy=0;" edge="1" source="gXM7lQSjL1Jpcok_i52--49" parent="1">
          <mxGeometry relative="1" as="geometry">
            <mxPoint x="1100" y="300" as="targetPoint" />
          </mxGeometry>
        </mxCell>
        <mxCell id="gXM7lQSjL1Jpcok_i52--49" value="&lt;font style=&quot;font-size: 14px&quot;&gt;LOGIN&lt;/font&gt;" style="rounded=1;whiteSpace=wrap;html=1;absoluteArcSize=1;arcSize=14;strokeWidth=2;" vertex="1" parent="1">
          <mxGeometry x="1030" y="229" width="140" height="30" as="geometry" />
        </mxCell>
        <mxCell id="gXM7lQSjL1Jpcok_i52--53" value="&lt;span style=&quot;font-size: 14px&quot;&gt;CHAT&lt;/span&gt;" style="rounded=1;whiteSpace=wrap;html=1;absoluteArcSize=1;arcSize=14;strokeWidth=2;" vertex="1" parent="1">
          <mxGeometry x="1405" y="370" width="140" height="30" as="geometry" />
        </mxCell>
        <mxCell id="gXM7lQSjL1Jpcok_i52--56" value="&lt;span style=&quot;font-size: 14px&quot;&gt;VIEW SCHEDULE&lt;/span&gt;" style="rounded=1;whiteSpace=wrap;html=1;absoluteArcSize=1;arcSize=14;strokeWidth=2;verticalAlign=middle;" vertex="1" parent="1">
          <mxGeometry x="192" y="451" width="140" height="30" as="geometry" />
        </mxCell>
        <mxCell id="gXM7lQSjL1Jpcok_i52--71" style="edgeStyle=none;rounded=0;orthogonalLoop=1;jettySize=auto;html=1;exitX=0.5;exitY=1;exitDx=0;exitDy=0;entryX=0.5;entryY=0;entryDx=0;entryDy=0;" edge="1" parent="1" source="gXM7lQSjL1Jpcok_i52--65" target="gXM7lQSjL1Jpcok_i52--70">
          <mxGeometry relative="1" as="geometry" />
        </mxCell>
        <mxCell id="gXM7lQSjL1Jpcok_i52--65" value="&lt;span style=&quot;font-size: 14px&quot;&gt;SCHEDULE&lt;/span&gt;" style="rounded=1;whiteSpace=wrap;html=1;absoluteArcSize=1;arcSize=14;strokeWidth=2;" vertex="1" parent="1">
          <mxGeometry x="570" y="451" width="140" height="30" as="geometry" />
        </mxCell>
        <mxCell id="gXM7lQSjL1Jpcok_i52--72" style="edgeStyle=none;rounded=0;orthogonalLoop=1;jettySize=auto;html=1;exitX=0.5;exitY=1;exitDx=0;exitDy=0;entryX=0.5;entryY=0;entryDx=0;entryDy=0;" edge="1" parent="1" source="gXM7lQSjL1Jpcok_i52--66" target="gXM7lQSjL1Jpcok_i52--70">
          <mxGeometry relative="1" as="geometry" />
        </mxCell>
        <mxCell id="gXM7lQSjL1Jpcok_i52--66" value="&lt;span style=&quot;font-size: 14px&quot;&gt;LIST&lt;/span&gt;" style="rounded=1;whiteSpace=wrap;html=1;absoluteArcSize=1;arcSize=14;strokeWidth=2;" vertex="1" parent="1">
          <mxGeometry x="721" y="451" width="140" height="30" as="geometry" />
        </mxCell>
        <mxCell id="gXM7lQSjL1Jpcok_i52--69" style="edgeStyle=none;rounded=0;orthogonalLoop=1;jettySize=auto;html=1;exitX=0.5;exitY=1;exitDx=0;exitDy=0;entryX=0.5;entryY=0;entryDx=0;entryDy=0;" edge="1" parent="1" source="gXM7lQSjL1Jpcok_i52--67" target="gXM7lQSjL1Jpcok_i52--66">
          <mxGeometry relative="1" as="geometry" />
        </mxCell>
        <mxCell id="gXM7lQSjL1Jpcok_i52--67" value="&lt;span style=&quot;font-size: 14px&quot;&gt;LESSONS&lt;/span&gt;" style="rounded=1;whiteSpace=wrap;html=1;absoluteArcSize=1;arcSize=14;strokeWidth=2;verticalAlign=middle;" vertex="1" parent="1">
          <mxGeometry x="655" y="370" width="140" height="30" as="geometry" />
        </mxCell>
        <mxCell id="gXM7lQSjL1Jpcok_i52--70" value="&lt;span style=&quot;font-size: 14px&quot;&gt;TAKE LESSON&lt;/span&gt;" style="rounded=1;whiteSpace=wrap;html=1;absoluteArcSize=1;arcSize=14;strokeWidth=2;" vertex="1" parent="1">
          <mxGeometry x="646" y="502" width="140" height="30" as="geometry" />
        </mxCell>
        <mxCell id="gXM7lQSjL1Jpcok_i52--75" value="&lt;span style=&quot;font-size: 14px&quot;&gt;M&lt;/span&gt;" style="rounded=1;whiteSpace=wrap;html=1;absoluteArcSize=1;arcSize=14;strokeWidth=2;" vertex="1" parent="1">
          <mxGeometry x="803" y="550" width="140" height="30" as="geometry" />
        </mxCell>
      </root>
    </mxGraphModel>
  </diagram>
</mxfile>
